<?xml version="1.0" standalone="no"?>
<!DOCTYPE svg PUBLIC "-//W3C//DTD SVG 20010904//EN"
 "http://www.w3.org/TR/2001/REC-SVG-20010904/DTD/svg10.dtd">
<svg version="1.0" xmlns="http://www.w3.org/2000/svg"
 width="470.000000pt" height="478.000000pt" viewBox="0 0 470.000000 478.000000"
 preserveAspectRatio="xMidYMid meet">

<g transform="translate(0.000000,478.000000) scale(0.100000,-0.100000)"
fill="#000000" stroke="none">
<path d="M1975 4650 c-160 -8 -205 -20 -243 -60 -20 -20 -59 -39 -142 -66 -92
-30 -121 -44 -146 -71 -17 -18 -34 -33 -38 -33 -4 0 -28 -18 -53 -40 -30 -26
-55 -40 -74 -40 -21 0 -28 -5 -31 -22 -2 -14 -14 -25 -37 -33 -36 -12 -49 -29
-32 -40 25 -15 10 -31 -25 -27 -32 4 -35 2 -30 -16 5 -15 1 -21 -20 -26 l-27
-7 22 -23 c30 -32 19 -56 -26 -56 -30 0 -34 -3 -28 -17 20 -49 19 -53 -19 -53
-38 0 -44 -8 -23 -29 10 -10 7 -12 -13 -11 -43 4 -51 1 -48 -17 2 -12 -5 -19
-20 -21 -13 -2 -27 -14 -32 -26 -5 -13 -16 -26 -24 -29 -11 -4 -16 -20 -16
-49 l-1 -43 -20 24 c-11 13 -23 21 -27 17 -4 -4 -7 -83 -6 -174 1 -149 3 -167
17 -166 10 1 17 -4 17 -12 0 -17 22 -18 39 -1 11 10 13 7 8 -18 -4 -16 -9 -40
-13 -52 -8 -28 11 -31 38 -6 21 19 23 6 3 -21 -19 -25 -9 -39 16 -25 28 14 36
4 16 -19 -21 -23 -22 -43 -2 -36 22 9 18 -8 -10 -50 -29 -43 -31 -55 -8 -71
16 -12 15 -20 -13 -89 -6 -15 -4 -18 9 -13 16 6 19 -1 31 -83 1 -8 9 -14 19
-12 11 2 17 -4 17 -17 0 -11 5 -23 10 -26 17 -11 11 -31 -36 -115 -58 -103
-60 -135 -16 -220 17 -35 32 -74 32 -87 0 -15 18 -45 45 -76 l46 -52 -4 -90
c-2 -55 -11 -107 -22 -135 -10 -27 -19 -83 -22 -141 l-5 -95 52 -115 c29 -62
56 -118 60 -124 4 -5 25 -41 45 -80 46 -85 91 -150 170 -246 110 -133 133
-164 179 -234 43 -68 45 -74 51 -170 5 -71 14 -117 32 -160 35 -86 37 -93 23
-111 -12 -13 -18 -10 -55 26 -46 45 -86 60 -163 60 -64 0 -112 -20 -151 -65
l-29 -33 -28 30 c-77 81 -229 91 -307 20 -44 -40 -52 -71 -57 -237 -4 -139 -7
-160 -22 -163 -15 -3 -17 16 -20 198 -3 198 -3 202 -27 221 -33 27 -139 27
-172 0 -24 -19 -24 -20 -27 -268 -4 -271 2 -312 43 -331 14 -7 67 -12 117 -12
73 0 97 4 122 20 l32 19 49 -24 c89 -45 209 -25 268 44 l27 32 31 -36 c43 -49
92 -68 149 -59 25 3 73 6 108 5 59 -2 65 0 93 30 l30 32 22 -21 c56 -53 159
-67 236 -32 86 39 111 96 111 246 l0 87 25 -23 c38 -35 42 -16 6 28 -24 31
-31 50 -31 84 0 43 1 45 39 56 21 7 43 12 50 12 8 0 11 -64 11 -225 l0 -226
25 -24 c20 -21 34 -25 85 -25 51 0 65 4 85 25 22 22 25 32 25 105 0 74 2 81
23 89 33 13 93 31 100 31 4 0 7 -45 7 -99 0 -82 3 -103 19 -122 l19 -24 321
-3 c268 -2 326 0 357 13 32 13 38 13 57 0 29 -20 120 -19 159 1 29 15 33 15
62 -2 24 -15 51 -19 118 -19 76 0 88 -2 92 -19 6 -23 26 -12 26 15 0 10 9 28
20 39 l21 21 19 -23 c17 -22 25 -23 145 -23 121 0 128 1 146 24 29 35 26 105
-6 136 -13 14 -36 25 -50 25 -40 0 -33 36 10 50 32 10 48 34 50 73 0 4 5 7 10
8 10 0 43 -59 64 -114 6 -15 15 -26 20 -23 19 12 -52 166 -77 166 -7 0 -18 11
-24 25 -6 14 -22 28 -34 31 -13 3 -28 12 -35 20 -9 11 -6 15 20 20 42 9 61 38
61 94 0 33 -6 53 -20 68 -19 20 -30 22 -131 22 -61 0 -119 -5 -130 -10 -17 -9
-22 -6 -37 21 -24 45 -89 115 -98 106 -4 -4 6 -22 23 -40 31 -33 73 -101 73
-118 0 -6 -20 4 -44 21 -51 35 -65 65 -116 254 -17 66 -36 130 -41 143 -10 27
-32 22 -22 -5 4 -12 3 -14 -5 -7 -18 17 -40 187 -48 372 -6 153 -5 170 10 176
23 9 52 81 60 152 4 33 11 98 17 145 5 47 16 117 24 157 8 40 15 95 15 123 0
42 7 64 39 118 71 122 75 135 84 297 19 360 12 445 -46 550 -23 40 -27 60 -27
129 0 48 -8 112 -20 156 -11 41 -20 93 -20 116 0 22 -9 67 -20 99 -11 32 -20
66 -20 75 0 10 -15 40 -33 66 -19 28 -36 67 -39 91 -4 29 -21 63 -52 105 -25
35 -60 92 -78 128 -30 63 -80 128 -164 213 -41 41 -116 77 -161 77 -31 0 -174
58 -198 80 -35 32 -91 50 -160 50 -47 0 -78 6 -107 21 -37 19 -55 20 -207 18
-91 -1 -179 0 -196 3 -16 3 -93 2 -170 -2z m257 -750 c21 -6 59 -29 85 -51 47
-42 70 -54 156 -84 l47 -17 0 -148 0 -148 63 -50 c174 -136 268 -309 271 -497
l1 -90 85 -3 86 -3 29 62 c38 78 59 107 144 194 37 39 81 94 96 123 16 29 44
66 61 82 31 27 38 28 113 26 77 -1 82 -3 117 -36 19 -19 44 -51 53 -70 19 -36
46 -158 38 -167 -5 -4 -30 68 -41 118 -3 15 -19 41 -35 58 -28 30 -32 31 -114
31 -83 0 -86 -1 -111 -31 -14 -17 -26 -34 -26 -38 0 -5 -13 -25 -30 -46 -29
-36 -39 -65 -22 -65 9 1 82 106 82 119 0 24 46 41 111 41 64 0 68 -2 98 -35
17 -20 31 -46 31 -59 0 -13 13 -57 30 -97 l29 -72 -6 -201 -6 -201 -46 -94
c-49 -100 -106 -167 -150 -177 -14 -3 -43 -12 -64 -20 -20 -8 -50 -14 -65 -14
l-27 0 -1 -195 c0 -107 3 -195 7 -195 4 0 10 12 12 28 3 15 4 -88 3 -228 l-1
-255 -59 -85 c-33 -47 -79 -107 -101 -135 -51 -62 -92 -135 -101 -181 -8 -41
12 -48 22 -6 12 47 51 116 101 177 52 64 97 126 138 193 l27 42 -1 276 c-1
155 -6 285 -11 295 -6 10 -10 67 -10 127 l0 109 66 23 c36 12 68 19 72 16 3
-4 -2 -30 -10 -59 -45 -147 -61 -352 -48 -633 14 -326 36 -461 74 -458 11 1
21 -14 32 -55 8 -31 26 -94 40 -141 34 -121 34 -120 -29 -120 -71 0 -135 -33
-163 -84 -23 -41 -28 -39 -39 11 -11 52 -36 63 -141 63 -110 0 -120 -3 -141
-44 -11 -22 -18 -26 -21 -16 -2 8 -14 25 -25 38 -19 20 -29 22 -133 22 -166 0
-158 12 -162 -240 -3 -181 -5 -201 -20 -198 -15 3 -18 27 -22 200 -6 240 -5
238 -107 238 -51 0 -74 -5 -92 -19 -24 -18 -25 -18 -65 0 -23 10 -53 19 -68
19 -36 0 -35 9 3 46 35 33 64 83 54 92 -4 4 -14 -4 -24 -17 -9 -13 -36 -45
-60 -72 -44 -49 -44 -49 -107 -49 -52 0 -67 -4 -84 -22 -11 -12 -20 -32 -20
-45 0 -18 -10 -28 -42 -43 -24 -11 -47 -20 -53 -20 -5 0 -18 19 -29 41 -28 62
-83 93 -170 97 -57 3 -79 -1 -111 -17 -21 -12 -42 -18 -46 -13 -4 4 -19 35
-33 69 -20 48 -26 80 -26 135 0 40 -4 88 -10 106 -15 55 -115 196 -240 343
-86 100 -114 145 -216 346 -87 171 -94 190 -94 244 0 89 24 183 73 286 6 13
25 28 44 35 40 14 44 33 6 24 -48 -11 -56 -11 -60 0 -2 6 8 16 22 24 32 17 32
34 0 26 -33 -8 -51 26 -36 67 14 36 31 34 31 -3 0 -24 8 -34 43 -55 24 -14 57
-25 72 -25 31 0 204 80 222 102 11 13 17 70 14 146 -1 35 -7 50 -30 71 -38 36
-120 77 -193 96 -31 9 -59 23 -62 31 -4 10 15 39 55 82 77 84 98 118 93 149
-3 13 4 44 15 68 10 24 17 45 15 48 -3 2 -37 -9 -77 -25 -60 -24 -86 -43 -160
-116 -84 -83 -89 -86 -103 -67 -11 14 -13 38 -9 95 3 41 7 98 9 127 2 29 9 59
16 68 7 8 10 22 6 30 -7 19 15 105 44 173 23 53 110 145 152 161 13 4 53 12
90 15 72 8 153 30 174 47 7 6 17 8 22 5 10 -6 101 40 195 101 58 37 94 50 240
87 184 47 221 52 279 36z m-974 -1144 c49 -14 113 -46 157 -80 31 -24 3 -36
-84 -36 -54 0 -86 -6 -117 -20 -47 -23 -154 -130 -154 -154 0 -24 -13 -20 -45
14 -24 25 -27 33 -18 52 6 13 23 48 37 80 15 31 37 63 49 71 12 9 40 31 62 51
46 41 43 40 113 22z m180 -233 c-3 -37 -6 -39 -88 -80 -94 -46 -145 -53 -191
-26 -31 18 -38 33 -16 33 7 0 29 16 48 36 59 63 85 74 172 74 l78 0 -3 -37z
m-311 -1803 c64 -39 68 -54 68 -260 0 -167 -2 -188 -20 -219 -27 -46 -77 -71
-143 -71 -67 0 -116 22 -142 66 -19 30 -21 48 -21 218 0 206 6 231 64 266 44
27 150 28 194 0z m399 -10 c35 -33 54 -79 54 -135 l0 -46 -72 3 -73 3 -1 35
c-3 79 -4 80 -24 80 -20 0 -20 -5 -18 -192 3 -185 4 -193 23 -193 18 0 20 8
23 63 2 51 0 62 -13 62 -11 0 -15 11 -15 45 l0 45 85 0 85 0 0 -150 0 -150
-45 0 c-30 0 -47 5 -51 14 -5 12 -12 11 -40 -6 -42 -25 -113 -21 -145 8 -49
44 -54 68 -54 264 0 206 4 221 68 261 26 16 46 19 109 17 65 -3 80 -7 104 -28z
m363 12 c63 -34 71 -64 71 -262 0 -193 -7 -223 -63 -264 -41 -30 -163 -30
-204 0 -55 40 -63 72 -63 257 0 188 7 217 61 260 29 23 44 27 99 27 44 0 76
-6 99 -18z m1761 -2 c24 -12 42 -29 44 -43 11 -49 13 -97 5 -103 -15 -9 -73
-14 -101 -8 -25 5 -28 10 -28 45 0 32 -4 39 -19 39 -21 0 -33 -33 -24 -68 3
-14 34 -42 80 -73 93 -63 113 -101 109 -201 -2 -75 -18 -101 -73 -124 -49 -21
-142 -18 -180 6 -46 27 -62 58 -69 128 l-7 62 71 0 71 0 3 -57 c3 -50 6 -58
23 -58 17 0 20 7 20 50 l0 49 -78 59 c-87 65 -107 98 -107 172 0 102 46 144
158 145 44 0 75 -6 102 -20z m-2900 -210 l0 -220 39 0 39 0 4 -51 c1 -28 1
-53 -1 -55 -2 -2 -55 -4 -118 -4 l-113 0 0 275 0 275 75 0 75 0 0 -220z m1661
192 c28 -25 31 -34 36 -107 6 -93 -8 -160 -38 -176 -11 -6 -45 -13 -75 -16
l-54 -6 0 -108 0 -109 -70 0 -70 0 0 275 0 275 120 0 c117 0 120 -1 151 -28z
m219 -192 l0 -220 45 0 45 0 0 -55 0 -55 -115 0 -115 0 0 275 0 275 70 0 70 0
0 -220z m360 165 l0 -55 -45 0 -45 0 0 -50 0 -50 45 0 45 0 0 -55 0 -55 -45 0
-45 0 0 -60 0 -60 50 0 50 0 0 -55 0 -55 -125 0 -125 0 0 275 0 275 120 0 120
0 0 -55z m314 3 c3 -29 21 -153 40 -275 l33 -223 -72 0 -72 0 -7 50 c-6 45 -9
50 -31 50 -21 0 -25 -5 -26 -30 -1 -16 -3 -34 -4 -40 -1 -5 -3 -14 -4 -20 0
-6 -34 -10 -76 -10 -73 0 -75 1 -70 23 3 12 18 126 35 252 17 127 32 240 35
253 5 21 10 22 109 22 l103 0 7 -52z m696 -3 l0 -55 -45 0 -45 0 0 -50 0 -50
45 0 45 0 0 -55 0 -55 -45 0 -45 0 0 -60 0 -60 50 0 50 0 0 -55 0 -55 -125 0
-125 0 0 275 0 275 120 0 120 0 0 -55z m-970 -87 c0 -42 -13 -52 -54 -38 -44
14 -46 26 -6 35 16 4 32 11 35 16 11 17 25 9 25 -13z m660 -78 c0 -5 -2 -10
-4 -10 -3 0 -8 5 -11 10 -3 6 -1 10 4 10 6 0 11 -4 11 -10z m-276 -75 c6 -17
-9 -29 -24 -20 -5 3 -10 15 -10 25 0 22 25 18 34 -5z m-416 -77 c-4 -31 -58
-40 -58 -9 0 20 12 29 43 30 14 1 18 -5 15 -21z"/>
<path d="M1605 3361 c-56 -14 -98 -30 -95 -36 6 -12 6 -12 90 10 36 9 82 21
103 26 37 10 52 30 20 28 -10 -1 -63 -13 -118 -28z"/>
<path d="M1242 3275 c-99 -58 -164 -119 -160 -147 4 -30 28 -36 28 -6 0 33 59
87 153 137 71 39 95 62 65 60 -7 0 -46 -20 -86 -44z"/>
<path d="M1570 3311 c-14 -5 -49 -21 -79 -36 -32 -17 -75 -30 -107 -33 -69 -6
-70 -22 -3 -22 37 0 70 9 118 32 36 17 79 34 95 37 16 4 31 12 34 19 4 13 -19
14 -58 3z"/>
<path d="M1625 3226 c-17 -7 -51 -39 -77 -70 -71 -86 -50 -104 131 -111 50 -2
77 -10 133 -39 l71 -37 137 2 c132 2 140 1 185 -25 83 -46 125 -27 125 57 0
53 -8 61 -131 120 -70 34 -82 37 -168 37 -97 0 -128 10 -184 56 -25 21 -39 24
-110 24 -45 -1 -96 -7 -112 -14z m155 -16 c0 -5 -2 -10 -4 -10 -3 0 -8 5 -11
10 -3 6 -1 10 4 10 6 0 11 -4 11 -10z m40 -4 c0 -3 -4 -8 -10 -11 -5 -3 -10
-1 -10 4 0 6 5 11 10 11 6 0 10 -2 10 -4z m70 -56 c0 -5 -5 -10 -11 -10 -5 0
-7 5 -4 10 3 6 8 10 11 10 2 0 4 -4 4 -10z m425 -159 c-9 -16 -25 -3 -18 15 4
10 9 12 15 6 6 -6 7 -15 3 -21z m-25 -45 c0 -3 -4 -8 -10 -11 -5 -3 -10 -1
-10 4 0 6 5 11 10 11 6 0 10 -2 10 -4z"/>
<path d="M1432 3135 c-7 -14 -12 -46 -12 -71 0 -49 36 -174 51 -174 13 0 12
10 -12 86 -20 64 -21 109 -4 162 10 31 -9 28 -23 -3z"/>
<path d="M1343 3018 c9 -40 52 -138 60 -138 14 0 7 36 -20 97 -28 61 -50 85
-40 41z"/>
<path d="M2346 3021 c-3 -5 1 -15 10 -22 23 -19 83 -38 89 -28 6 9 -26 29 -48
29 -8 0 -17 7 -21 15 -6 17 -22 20 -30 6z"/>
<path d="M2354 2916 c-8 -14 -55 -45 -102 -69 l-87 -45 -66 14 c-37 7 -79 18
-94 24 -39 15 -102 12 -136 -5 -27 -14 -69 -68 -69 -87 0 -19 21 -5 35 22 26
50 112 78 155 50 11 -7 5 -10 -23 -10 -68 0 -137 -54 -137 -108 0 -28 1 -28
100 14 47 20 88 29 148 32 53 3 82 9 82 16 0 7 37 30 83 51 100 49 184 125
136 125 -5 0 -16 -11 -25 -24z"/>
<path d="M3326 2928 c-2 -7 -8 -35 -14 -63 -6 -27 -14 -58 -17 -67 -5 -13 -2
-18 8 -18 11 0 19 18 27 58 18 88 15 84 54 61 20 -11 43 -19 53 -17 13 2 4 11
-31 31 -53 30 -75 34 -80 15z"/>
<path d="M3550 2902 c0 -10 5 -23 11 -29 21 -21 7 -152 -24 -214 -30 -62 -32
-69 -17 -69 5 0 22 24 37 53 31 62 44 196 23 247 -14 33 -30 40 -30 12z"/>
<path d="M3590 2912 c0 -4 5 -13 11 -19 7 -7 10 -48 7 -114 -2 -88 -6 -109
-25 -135 -21 -29 -21 -44 -2 -44 4 0 17 19 28 43 17 36 21 62 21 148 0 68 -4
109 -12 117 -14 14 -28 16 -28 4z"/>
<path d="M2377 2831 c-16 -10 -56 -24 -88 -31 -54 -12 -78 -24 -67 -35 7 -7
148 33 173 49 13 9 36 16 50 16 14 0 25 5 25 10 0 17 -63 11 -93 -9z"/>
<path d="M1433 2778 c54 -122 61 -148 65 -225 l4 -81 -35 -17 c-19 -9 -43 -26
-54 -38 -36 -40 -129 -201 -155 -267 -29 -74 -53 -192 -44 -216 10 -26 26 -5
26 34 0 59 27 157 61 225 45 88 111 187 149 222 l32 30 -7 -50 c-12 -82 -73
-271 -92 -284 -20 -13 -33 -51 -33 -100 0 -42 4 -53 26 -70 31 -24 80 -27 108
-6 16 12 17 17 6 30 -14 17 -60 21 -60 5 0 -5 5 -10 10 -10 6 0 10 -4 10 -10
0 -17 -35 -11 -58 10 -22 21 -29 69 -16 104 9 22 19 20 21 -5 2 -26 22 -51 35
-43 6 4 6 10 -1 17 -19 19 -12 98 15 166 34 84 74 277 74 357 0 87 -51 234
-82 234 -6 0 -8 -6 -5 -12z"/>
<path d="M1630 2771 c-13 -26 -13 -64 2 -96 15 -32 43 -35 31 -2 -4 12 -8 43
-8 70 0 50 -8 59 -25 28z"/>
<path d="M2345 2760 c-135 -26 -156 -33 -142 -46 4 -4 37 0 74 9 38 9 85 19
106 23 20 3 37 10 37 15 0 10 -17 10 -75 -1z"/>
<path d="M3260 2736 c0 -7 7 -19 16 -27 37 -30 47 -70 41 -160 -3 -48 -3 -90
0 -93 9 -8 44 14 69 43 12 15 34 33 48 40 14 8 26 18 26 23 0 19 -30 6 -73
-32 l-45 -40 -4 92 c-3 86 -5 96 -33 130 -32 40 -45 47 -45 24z"/>
<path d="M2146 2681 c-10 -10 -43 -33 -75 -50 -50 -26 -70 -31 -128 -31 -63 0
-71 2 -80 23 -10 20 -11 21 -18 4 -12 -29 17 -48 81 -54 42 -4 70 -1 99 11 57
24 143 77 149 93 8 21 -10 24 -28 4z"/>
<path d="M1990 2281 c0 -5 17 -12 37 -16 58 -11 117 -50 208 -139 138 -136
177 -219 190 -404 4 -58 12 -102 18 -102 7 0 8 37 4 108 -7 121 -32 209 -82
287 -40 63 -191 207 -259 245 -48 28 -116 40 -116 21z"/>
<path d="M1832 2248 c-7 -7 -12 -18 -12 -26 0 -10 4 -10 22 2 46 33 100 15
118 -38 15 -45 4 -82 -31 -107 -16 -11 -29 -25 -29 -30 0 -18 23 -8 57 26 33
33 35 39 31 86 -7 69 -36 99 -98 99 -25 0 -51 -5 -58 -12z"/>
<path d="M2603 2075 c3 -22 13 -80 21 -130 21 -123 20 -199 -4 -269 -12 -32
-34 -112 -51 -179 -35 -140 -69 -256 -99 -342 -26 -75 -21 -106 8 -45 19 41
83 258 133 455 12 44 27 97 35 118 8 21 14 74 14 120 0 90 -33 284 -51 301 -9
8 -10 1 -6 -29z"/>
<path d="M1765 2073 c-11 -2 -30 -6 -42 -9 -31 -6 -93 -62 -93 -84 0 -10 6
-20 14 -23 19 -7 28 3 16 18 -28 34 118 97 176 75 33 -13 34 -13 34 4 0 21
-51 31 -105 19z"/>
<path d="M2450 1965 c0 -3 7 -20 16 -36 13 -25 16 -75 17 -272 2 -242 2 -242
-27 -327 -18 -54 -44 -105 -71 -141 -54 -70 -68 -96 -56 -103 5 -3 18 9 30 27
11 17 36 52 54 77 19 25 47 81 63 125 l29 80 0 255 c0 207 -3 261 -15 284 -14
27 -40 47 -40 31z"/>
<path d="M1266 1882 c-30 -44 -34 -105 -12 -187 18 -70 31 -91 95 -160 148
-159 219 -288 277 -503 6 -23 22 -3 17 21 -39 174 -122 328 -256 474 -87 94
-93 104 -113 179 -20 77 -18 116 9 155 38 56 39 59 24 59 -8 0 -26 -17 -41
-38z"/>
<path d="M1870 1860 c-247 -56 -397 -114 -444 -171 -25 -30 -26 -38 -10 -117
2 -12 16 -27 29 -32 15 -6 25 -17 25 -30 0 -11 37 -72 81 -136 94 -132 112
-144 223 -144 215 1 406 64 489 160 63 74 127 230 127 310 0 82 -39 119 -173
164 -64 22 -246 20 -347 -4z m280 -10 c20 -6 13 -8 -30 -9 -84 -2 -130 -11
-195 -36 -182 -71 -324 -116 -379 -122 -33 -3 -66 -10 -73 -15 -7 -6 -10 -28
-8 -59 5 -50 -6 -64 -25 -30 -16 31 -12 86 8 103 64 57 324 145 507 171 51 7
169 5 195 -3z m47 -92 c20 -25 23 -65 7 -79 -26 -21 -50 1 -46 42 6 51 19 63
39 37z m93 -33 c0 -31 -28 -54 -40 -34 -8 12 -4 52 7 72 8 14 33 -15 33 -38z
m-252 10 c17 -36 15 -66 -6 -93 -16 -21 -21 -22 -45 -11 -41 18 -46 64 -11
100 34 36 47 36 62 4z m86 12 c23 -17 18 -76 -7 -91 -15 -9 -21 -6 -37 14 -24
31 -25 59 -2 76 22 17 24 17 46 1z m245 -54 c1 -18 -3 -33 -9 -33 -5 0 -10 24
-9 53 0 38 3 47 9 32 5 -11 9 -35 9 -52z m-438 26 c16 -31 15 -109 -2 -120
-21 -13 -57 -11 -62 4 -3 6 -6 2 -6 -11 -1 -31 -71 -59 -71 -28 0 7 -7 19 -15
26 -22 18 -19 72 5 93 37 31 70 14 70 -36 0 -17 4 -26 10 -22 6 4 8 15 5 24
-3 10 0 29 7 42 31 57 40 62 59 28z m-195 -66 c3 -10 14 -35 24 -55 11 -20 20
-39 20 -41 0 -8 -81 -28 -90 -22 -6 3 -10 35 -10 71 0 62 1 64 25 64 16 0 28
-7 31 -17z m-81 -44 c9 -16 15 -44 13 -61 -4 -39 -28 -51 -28 -14 0 13 -4 28
-10 31 -17 10 -11 75 6 75 2 0 11 -14 19 -31z m-41 -31 c9 -17 16 -39 16 -50
0 -33 -18 -19 -34 29 -19 55 -19 53 -7 53 5 0 17 -14 25 -32z m690 -70 c-43
-112 -100 -162 -244 -213 -54 -19 -216 -45 -284 -45 -94 0 -122 16 -179 99
-27 42 -63 92 -79 112 -33 43 -34 49 -10 49 10 0 41 -27 70 -60 29 -33 73 -72
98 -86 43 -25 50 -27 136 -20 156 11 382 103 467 190 25 25 46 44 48 43 1 -2
-9 -33 -23 -69z m-170 -7 c17 -19 17 -20 -13 -35 -60 -32 -86 -6 -33 33 15 11
27 21 28 21 0 0 9 -9 18 -19z m58 4 c0 -5 -5 -11 -11 -13 -6 -2 -11 4 -11 13
0 9 5 15 11 13 6 -2 11 -8 11 -13z m-144 -52 c3 -22 -28 -40 -48 -28 -12 7
-13 38 -3 49 15 14 48 1 51 -21z m-68 -2 c0 -5 2 -16 5 -23 5 -12 -30 -38 -50
-38 -11 0 -4 59 8 63 20 9 37 8 37 -2z m-72 -44 c3 -22 -1 -27 -17 -27 -17 0
-21 6 -21 31 0 24 4 30 18 27 10 -2 18 -14 20 -31z m-48 -12 c0 -18 -5 -25
-20 -25 -15 0 -20 7 -20 25 0 18 5 25 20 25 15 0 20 -7 20 -25z m-54 -22 c-11
-11 -19 6 -11 24 8 17 8 17 12 0 3 -10 2 -21 -1 -24z"/>
<path d="M1014 637 c-2 -7 -3 -94 -2 -192 3 -152 5 -180 18 -180 13 0 15 29
18 193 2 168 0 192 -13 192 -9 0 -18 -6 -21 -13z"/>
<path d="M1776 628 c-8 -30 -8 -332 0 -352 9 -23 33 -19 39 6 3 13 4 99 3 193
-3 147 -5 170 -19 173 -10 2 -19 -6 -23 -20z"/>
<path d="M2280 566 c0 -59 2 -66 20 -66 23 0 33 29 28 86 -2 32 -7 40 -25 42
-22 3 -23 0 -23 -62z"/>
<path d="M3187 530 c-5 -36 -10 -84 -13 -107 -5 -40 -4 -43 19 -43 23 0 23 2
19 58 -2 31 -7 80 -11 107 l-7 50 -7 -65z"/>
</g>
</svg>
